#!OML:ASF X:\für Bonn\!DataBase\2005_08_12_Daniel\c3d\Daniel.ASF
:FULLY-SPECIFIED
:DEGREES
1
root 1.06878 16.7454 -21.6313 351.112 0.11102 -5.92876
lowerback 14.2845 1.31353 6.81963
upperback 5.63007 2.63602 -0.198961
thorax -1.70974 1.40428 -4.45703
lowerneck 6.2749 0.868701 -2.48592
upperneck 26.4414 1.4428 -0.513126
head 7.08458 0.453318 0.31943
rclavicle -4.8901e-014 6.75868e-015
rhumerus -11.1474 -27.0669 -81.0309
rradius 12.5348
rwrist 38.891
rhand -22.5034 16.0567
rfingers 7.12502
rthumb 3.92262 -13.8869
lclavicle -4.8901e-014 6.75868e-015
lhumerus -34.8909 32.3909 72.7587
lradius 27.9144
lwrist -19.2531
lhand -11.7948 -7.23354
lfingers 7.12502
lthumb 14.2547 22.2572
rfemur 36.7129 -0.514988 27.1572
rtibia 6.04305e-014
rfoot -21.9303 -360.917
rtoes -12.9652
lfemur -30.9117 -14.0197 -9.33649
ltibia 33.4014
lfoot -13.4124 9.75073
ltoes -2.68533
2
root 1.09294 16.7282 -21.4795 351.182 -0.00115877 -5.78016
lowerback 14.2829 1.37257 6.46218
upperback 5.6314 2.66162 -0.335948
thorax -1.71716 1.41381 -4.40356
lowerneck 6.53033 0.899041 -2.21414
upperneck 26.263 1.48787 -0.601261
head 6.98383 0.495466 0.24315
rclavicle 3.47873e-015 5.56597e-015
rhumerus -11.0288 -27.6051 -81.4229
rradius 12.4474
rwrist 39.5401
rhand -22.7772 15.9556
rfingers 7.12502
rthumb 3.65822 -13.9927
lclavicle 3.47873e-015 5.56597e-015
lhumerus -35.2985 33.9348 71.6878
lradius 26.7363
lwrist -20.3288
lhand -12.1417 -6.65832
lfingers 7.12502
lthumb 13.9205 22.8557
rfemur 37.1129 -0.599147 26.7613
rtibia 1.27222e-014
rfoot -21.4002 -360.83
rtoes -13.3401
lfemur -30.9025 -13.354 -9.77152
ltibia 33.8786
lfoot -11.605 9.42563
ltoes -4.07436
3
root 1.12075 16.717 -21.3267 351.231 -0.112738 -5.61347
lowerback 14.2907 1.41854 6.1015
upperback 5.66619 2.66906 -0.475934
thorax -1.6964 1.4161 -4.34814
lowerneck 6.71321 0.931894 -1.96644
upperneck 26.0987 1.53779 -0.681014
head 6.90004 0.537562 0.174461
rclavicle -2.20651e-014 1.82882e-014
rhumerus -10.8778 -28.023 -81.8511
rradius 12.3623
rwrist 40.1021
rhand -23.0711 15.8648
rfingers 7.12502
rthumb 3.37447 -14.0882
lclavicle -2.20651e-014 1.82882e-014
lhumerus -35.7953 35.8031 70.4175
lradius 25.5005
lwrist -21.8047
lhand -12.5128 -5.95691
lfingers 7.12502
lthumb 13.5628 23.5813
rfemur 37.5198 -0.681449 26.3448
rtibia 6.36111e-014
rfoot -20.7895 -360.835
rtoes -14.0049
lfemur -30.8414 -12.7596 -10.2186
ltibia 34.3347
lfoot -10.0429 9.11821
ltoes -6.24721
4
root 1.1495 16.7118 -21.1723 351.267 -0.224038 -5.41092
lowerback 14.3639 1.46073 5.72356
upperback 5.68846 2.67254 -0.649649
thorax -1.7234 1.41454 -4.32104
lowerneck 6.88763 0.970644 -1.68515
upperneck 25.9341 1.59666 -0.7597
head 6.81809 0.586795 0.100748
rclavicle 1.33186e-014 -2.22639e-014
rhumerus -10.7811 -27.7066 -82.36
rradius 12.3618
rwrist 39.8029
rhand -23.2516 15.789
rfingers 7.12502
rthumb 3.2001 -14.1667
lclavicle 1.33186e-014 -2.22639e-014
lhumerus -36.4915 38.0207 68.7586
lradius 24.1462
lwrist -23.7315
lhand -12.9032 -5.40575
lfingers 7.12502
lthumb 13.1865 24.1572
rfemur 37.9216 -0.758644 25.8916
rtibia -7.63333e-014
rfoot -20.059 -360.957
rtoes -14.7507
lfemur -30.7276 -12.2494 -10.6755
ltibia 34.758
lfoot -8.66133 8.84087
ltoes -7.57305
5
root 1.18021 16.7096 -21.0177 351.278 -0.315243 -5.20826
lowerback 14.4748 1.48326 5.32021
upperback 5.73173 2.64839 -0.797119
thorax -1.75404 1.39891 -4.24882
lowerneck 6.95326 1.0156 -1.40237
upperneck 25.843 1.67775 -0.884505
head 6.77936 0.642234 0.0134589
rclavicle 5.76476e-015 1.59028e-014
rhumerus -10.6759 -27.1283 -82.875
rradius 12.3879
rwrist 39.3404
rhand -23.4 15.7433
rfingers 7.12502
rthumb 3.05685 -14.2145
lclavicle 5.76476e-015 1.59028e-014
lhumerus -37.4768 40.6025 66.76
lradius 22.7791
lwrist -26.1735
lhand -13.309 -4.82451
lfingers 7.12502
lthumb 12.7953 24.7634
rfemur 38.3408 -0.853692 25.4295
rtibia 5.725e-014
rfoot -19.1693 -361.107
rtoes -15.4617
lfemur -30.5712 -11.7734 -11.141
ltibia 35.1903
lfoot -7.48265 8.56414
ltoes -8.56402
6
root 1.21029 16.7102 -20.8629 351.264 -0.4234 -4.9706
lowerback 14.6424 1.50224 4.87786
upperback 5.77461 2.61548 -0.960305
thorax -1.81709 1.37754 -4.17212
lowerneck 6.9975 1.07241 -1.14691
upperneck 25.7587 1.77152 -0.99034
head 6.74649 0.702136 -0.0623556
rclavicle -9.93923e-016 1.27222e-014
rhumerus -10.5832 -26.5451 -83.4103
rradius 12.4059
rwrist 38.7713
rhand -23.4085 15.772
rfingers 7.12502
rthumb 3.04865 -14.1859
lclavicle -9.93923e-016 1.27222e-014
lhumerus -38.9376 43.6163 64.143
lradius 21.408
lwrist -29.2117
lhand -13.6724 -4.36889
lfingers 7.12502
lthumb 12.445 25.2406
rfemur 38.7578 -0.928178 24.9352
rtibia -3.18055e-015
rfoot -18.0518 -361.331
rtoes -15.9906
lfemur -30.3582 -11.2204 -11.6471
ltibia 35.6402
lfoot -6.47426 8.1986
ltoes -9.46539
7
root 1.23923 16.7108 -20.709 351.2 -0.527638 -4.75146
lowerback 14.8956 1.52334 4.44725
upperback 5.82844 2.58874 -1.12181
thorax -1.91238 1.35874 -4.10442
lowerneck 6.98335 1.12091 -0.816551
upperneck 25.7021 1.86591 -1.14479
head 6.7337 0.765281 -0.166293
rclavicle -3.97569e-016 1.59028e-015
rhumerus -10.4936 -25.8306 -83.9536
rradius 12.4183
rwrist 37.9327
rhand -23.3057 15.8372
rfingers 7.12502
rthumb 3.14793 -14.1193
lclavicle -3.97569e-016 1.59028e-015
lhumerus -40.826 46.5788 61.1246
lradius 20.1752
lwrist -32.4458
lhand -13.88 -3.92935
lfingers 7.12502
lthumb 12.2448 25.6922
rfemur 38.1849 -1.04085 24.4689
rtibia 1.84622
rfoot -17.418 -361.474
rtoes -16.2124
lfemur -30.1124 -10.5734 -12.154
ltibia 36.1371
lfoot -5.61791 7.70803
ltoes -10.1672
8
root 1.26787 16.7116 -20.5565 351.076 -0.612188 -4.50625
lowerback 15.2404 1.53656 3.99548
upperback 5.89341 2.54871 -1.29669
thorax -2.04558 1.33256 -4.04026
lowerneck 6.96122 1.17642 -0.537696
upperneck 25.6428 1.9591 -1.2474
head 6.72095 0.826572 -0.244451
rclavicle 2.72335e-014 7.95139e-016
rhumerus -10.4341 -25.0485 -84.4944
rradius 12.4683
rwrist 36.9716
rhand -23.0177 15.8666
rfingers 7.12502
rthumb 3.42596 -14.0857
lclavicle 2.72335e-014 7.95139e-016
lhumerus -43.3313 49.5369 57.5068
lradius 19.1043
lwrist -35.9514
lhand -13.8741 -3.52768
lfingers 7.12502
lthumb 12.2505 26.0935
rfemur 33.9147 -1.21278 23.8814
rtibia 10.5506
rfoot -19.4492 -360.975
rtoes -16.2119
lfemur -29.8027 -9.82662 -12.7119
ltibia 36.662
lfoot -4.86844 7.09341
ltoes -10.0822
9
root 1.29671 16.7143 -20.4051 350.892 -0.714765 -4.2387
lowerback 15.6519 1.5443 3.47755
upperback 5.97719 2.49101 -1.4333
thorax -2.20001 1.29635 -3.89738
lowerneck 6.89431 1.26765 -0.362872
upperneck 25.6224 2.1021 -1.35308
head 6.72844 0.901463 -0.30359
rclavicle -4.77083e-015 3.18055e-015
rhumerus -10.3936 -24.1301 -85.0018
rradius 12.5404
rwrist 35.9293
rhand -22.6988 15.89
rfingers 7.12502
rthumb 3.734 -14.0571
lclavicle -4.77083e-015 3.18055e-015
lhumerus -46.4157 52.2401 53.5102
lradius 18.2743
lwrist -39.3858
lhand -13.6618 -3.20014
lfingers 7.12502
lthumb 12.4552 26.4087
rfemur 31.6995 -2.26676 22.5293
rtibia 15.5089
rfoot -19.0995 -359.782
rtoes -16.1828
lfemur -29.4163 -8.9159 -13.3089
ltibia 37.1832
lfoot -4.171 6.33876
ltoes -9.1354
10
root 1.32619 16.7202 -20.2548 350.666 -0.793707 -3.87973
lowerback 16.1248 1.57276 2.92241
upperback 6.07471 2.44924 -1.6282
thorax -2.36811 1.26865 -3.79939
lowerneck 6.80141 1.34335 -0.189239
upperneck 25.6038 2.21262 -1.39891
head 6.74023 0.96473 -0.343818
rclavicle 4.79071e-014 -3.33958e-014
rhumerus -10.3404 -23.1537 -85.5232
rradius 12.6074
rwrist 34.727
rhand -22.2241 15.8743
rfingers 7.12502
rthumb 4.1924 -14.0642
lclavicle 4.79071e-014 -3.33958e-014
lhumerus -49.9657 54.6724 49.0587
lradius 17.5961
lwrist -42.8934
lhand -13.1961 -3.04165
lfingers 7.12502
lthumb 12.9041 26.5394
rfemur 29.8562 -3.20737 21.1429
rtibia 19.773
rfoot -18.0924 -358.89
rtoes -16.3677
lfemur -28.9644 -7.88464 -14.0301
ltibia 37.681
lfoot -3.53837 5.46937
ltoes -7.63786
11
root 1.35559 16.7314 -20.1057 350.43 -0.85094 -3.3978
lowerback 16.6045 1.60143 2.22746
upperback 6.18575 2.37901 -1.84095
thorax -2.53146 1.22611 -3.6355
lowerneck 6.62194 1.44786 -0.0731465
upperneck 25.6433 2.36411 -1.44628
head 6.78569 1.04117 -0.372226
rclavicle 2.22639e-014 -3.18055e-015
rhumerus -10.2979 -22.3258 -86.0281
rradius 12.6855
rwrist 33.7248
rhand -21.7214 15.8856
rfingers 7.12502
rthumb 4.67778 -14.0428
lclavicle 2.22639e-014 -3.18055e-015
lhumerus -54.306 57.0622 43.8139
lradius 16.9831
lwrist -46.651
lhand -12.5668 -2.99814
lfingers 7.12502
lthumb 13.5107 26.5436
rfemur 28.1258 -4.02726 19.6934
rtibia 23.69
rfoot -16.5975 -358.312
rtoes -16.4625
lfemur -28.4704 -6.81969 -14.8682
ltibia 38.1463
lfoot -3.21729 4.55357
ltoes -6.58708
12
root 1.38616 16.7464 -19.9609 350.152 -0.906133 -3.0076
lowerback 17.1773 1.62378 1.63802
upperback 6.29179 2.31173 -2.01722
thorax -2.7431 1.18527 -3.49686
lowerneck 6.42117 1.54422 0.0174794
upperneck 25.6977 2.50459 -1.49129
head 6.83957 1.11007 -0.39539
rclavicle 1.80894e-014 -1.74931e-014
rhumerus -10.2596 -21.8046 -86.4777
rradius 12.7326
rwrist 33.0834
rhand -21.1502 15.8872
rfingers 7.12502
rthumb 5.22937 -14.0283
lclavicle 1.80894e-014 -1.74931e-014
lhumerus -58.8928 58.9518 38.4049
lradius 16.398
lwrist -50.1636
lhand -11.7887 -3.03732
lfingers 7.12502
lthumb 14.2606 26.453
rfemur 26.4749 -4.79597 18.3919
rtibia 27.3798
rfoot -14.7175 -357.999
rtoes -16.419
lfemur -27.9241 -5.72469 -15.6039
ltibia 38.593
lfoot -3.16987 3.55005
ltoes -6.32342
